<svg xmlns="http://www.w3.org/2000/svg" version="1.1" xmlns:xlink="http://www.w3.org/1999/xlink" width="200" height="200"><svg xmlns="http://www.w3.org/2000/svg" version="1.1" xmlns:xlink="http://www.w3.org/1999/xlink" viewBox="0 0 200 200"><rect width="200" height="200" fill="url('#gradient')"></rect><defs><linearGradient id="SvgjsLinearGradient1001" gradientTransform="rotate(0 0.5 0.5)"><stop offset="0%" stop-color="#000000" style="--darkreader-inline-stopcolor: var(--darkreader-background-000000, #000000);" data-darkreader-inline-stopcolor=""></stop><stop offset="100%" stop-color="#000000" style="--darkreader-inline-stopcolor: var(--darkreader-background-000000, #000000);" data-darkreader-inline-stopcolor=""></stop></linearGradient></defs><g><g fill="#becbe7" transform="matrix(1.5869425438958042,0,0,1.5869425438958042,5.673658900862669,111.74571863080415)" stroke="#0127ff" stroke-width="0.2" style="--darkreader-inline-fill: var(--darkreader-background-becbe7, #313537); --darkreader-inline-stroke: var(--darkreader-text-0127ff, #1a7aff);" data-darkreader-inline-fill="" data-darkreader-inline-stroke=""><path d="M10.11-14.22L12.09-5.30L13.72-14.22L17.12-14.22L14.10 0L10.55 0L8.64-8.11L6.78 0L3.23 0L0.21-14.22L3.61-14.22L5.24-5.30L7.20-14.22L10.11-14.22ZM21.78-10.57L21.78 0L18.48 0L18.48-10.57L21.78-10.57ZM18.28-13.29L18.28-13.29Q18.28-13.99 18.79-14.44Q19.30-14.89 20.11-14.89Q20.92-14.89 21.43-14.44Q21.93-13.99 21.93-13.29Q21.93-12.59 21.43-12.14Q20.92-11.69 20.11-11.69Q19.30-11.69 18.79-12.14Q18.28-12.59 18.28-13.29ZM27.28-15L27.28 0L23.97 0L23.97-15L27.28-15ZM34.83-2.97L34.83-2.97Q34.83-3.39 34.39-3.64Q33.96-3.90 32.72-4.17Q31.49-4.44 30.69-4.89Q29.89-5.33 29.47-5.97Q29.05-6.60 29.05-7.42L29.05-7.42Q29.05-8.88 30.25-9.82Q31.46-10.76 33.40-10.76L33.40-10.76Q35.49-10.76 36.76-9.81Q38.03-8.87 38.03-7.32L38.03-7.32L34.73-7.32Q34.73-8.59 33.39-8.59L33.39-8.59Q32.87-8.59 32.52-8.31Q32.17-8.02 32.17-7.59L32.17-7.59Q32.17-7.15 32.60-6.88Q33.03-6.60 33.97-6.43Q34.91-6.25 35.63-6.01L35.63-6.01Q38.01-5.19 38.01-3.07L38.01-3.07Q38.01-1.62 36.72-0.71Q35.44 0.20 33.40 0.20L33.40 0.20Q32.04 0.20 30.98-0.29Q29.91-0.78 29.32-1.62Q28.72-2.46 28.72-3.39L28.72-3.39L31.80-3.39Q31.82-2.66 32.29-2.32Q32.75-1.98 33.49-1.98L33.49-1.98Q34.16-1.98 34.50-2.26Q34.83-2.53 34.83-2.97ZM39.14-4.82L39.13-5.38Q39.13-6.96 39.75-8.20Q40.36-9.43 41.51-10.10Q42.67-10.76 44.22-10.76L44.22-10.76Q46.59-10.76 47.96-9.29Q49.33-7.82 49.33-5.29L49.33-5.29L49.33-5.18Q49.33-2.71 47.95-1.25Q46.58 0.20 44.24 0.20L44.24 0.20Q41.98 0.20 40.62-1.16Q39.25-2.51 39.14-4.82L39.14-4.82ZM42.43-5.77L42.42-5.18Q42.42-3.71 42.88-3.03Q43.34-2.34 44.24-2.34L44.24-2.34Q46.00-2.34 46.04-5.05L46.04-5.05L46.04-5.38Q46.04-8.22 44.22-8.22L44.22-8.22Q42.57-8.22 42.43-5.77L42.43-5.77ZM50.71-10.57L53.80-10.57L53.91-9.33Q55-10.76 56.92-10.76L56.92-10.76Q58.57-10.76 59.39-9.78Q60.21-8.79 60.23-6.81L60.23-6.81L60.23 0L56.93 0L56.93-6.67Q56.93-7.47 56.61-7.85Q56.29-8.22 55.44-8.22L55.44-8.22Q54.47-8.22 54.00-7.46L54.00-7.46L54.00 0L50.71 0L50.71-10.57ZM79.07-14.22L79.07 0L75.66 0L75.66-5.94L70.62-5.94L70.62 0L67.19 0L67.19-14.22L70.62-14.22L70.62-8.57L75.66-8.57L75.66-14.22L79.07-14.22ZM83.94-14.22L86.76-3.87L89.59-14.22L93.42-14.22L88.63 0L84.88 0L80.14-14.22L83.94-14.22ZM102.63 0L101.80-2.66L97.10-2.66L96.28 0L92.62 0L97.83-14.22L101.05-14.22L106.31 0L102.63 0ZM99.44-10.23L97.92-5.30L100.98-5.30L99.44-10.23ZM115.23-4.81L118.64-4.81Q118.57-3.33 117.84-2.19Q117.11-1.05 115.79-0.43Q114.46 0.20 112.76 0.20L112.76 0.20Q109.96 0.20 108.35-1.63Q106.74-3.46 106.74-6.79L106.74-6.79L106.74-7.49Q106.74-9.58 107.47-11.15Q108.19-12.71 109.56-13.57Q110.93-14.42 112.72-14.42L112.72-14.42Q115.31-14.42 116.88-13.06Q118.46-11.70 118.67-9.31L118.67-9.31L115.25-9.31Q115.21-10.61 114.60-11.17Q113.98-11.74 112.72-11.74L112.72-11.74Q111.45-11.74 110.85-10.78Q110.25-9.82 110.22-7.72L110.22-7.72L110.22-6.72Q110.22-4.44 110.80-3.47Q111.37-2.49 112.76-2.49L112.76-2.49Q113.95-2.49 114.57-3.05Q115.20-3.60 115.23-4.81L115.23-4.81Z"></path></g></g></svg><style>@media (prefers-color-scheme: light) { :root { filter: none; } }
@media (prefers-color-scheme: dark) { :root { filter: none; } }
</style></svg>